<mxfile host="Electron" agent="Mozilla/5.0 (Windows NT 10.0; Win64; x64) AppleWebKit/537.36 (KHTML, like Gecko) draw.io/25.0.2 Chrome/128.0.6613.186 Electron/32.2.5 Safari/537.36" version="25.0.2" pages="3">
  <diagram name="Page-1" id="NZMjVMjf7_KNNj0vaVUk">
    <mxGraphModel dx="1105" dy="704" grid="1" gridSize="10" guides="1" tooltips="1" connect="1" arrows="1" fold="1" page="1" pageScale="1" pageWidth="850" pageHeight="1100" math="0" shadow="0">
      <root>
        <mxCell id="0" />
        <mxCell id="1" parent="0" />
        <mxCell id="Bdny6ZiSgTdya0lCNaMM-2" value="" style="edgeStyle=orthogonalEdgeStyle;rounded=0;orthogonalLoop=1;jettySize=auto;html=1;" parent="1" source="oE383LGk6NYut7QMs4Kp-1" target="Bdny6ZiSgTdya0lCNaMM-1" edge="1">
          <mxGeometry relative="1" as="geometry" />
        </mxCell>
        <mxCell id="oE383LGk6NYut7QMs4Kp-1" value="Start" style="ellipse;whiteSpace=wrap;html=1;" parent="1" vertex="1">
          <mxGeometry x="40" y="30" width="120" height="80" as="geometry" />
        </mxCell>
        <mxCell id="1oQjl5Z-HHN7GtmA1oQ8-1" value="" style="edgeStyle=orthogonalEdgeStyle;rounded=0;orthogonalLoop=1;jettySize=auto;html=1;" edge="1" parent="1" source="oE383LGk6NYut7QMs4Kp-2" target="oE383LGk6NYut7QMs4Kp-4">
          <mxGeometry relative="1" as="geometry" />
        </mxCell>
        <mxCell id="oE383LGk6NYut7QMs4Kp-2" value="Output&lt;div&gt;pilih menu&lt;/div&gt;&lt;div&gt;1. Login&lt;/div&gt;&lt;div&gt;2. Register&lt;/div&gt;&lt;div&gt;3. Exit&lt;/div&gt;" style="shape=parallelogram;perimeter=parallelogramPerimeter;whiteSpace=wrap;html=1;fixedSize=1;" parent="1" vertex="1">
          <mxGeometry x="257.5" y="120" width="155" height="80" as="geometry" />
        </mxCell>
        <mxCell id="oE383LGk6NYut7QMs4Kp-10" value="" style="edgeStyle=orthogonalEdgeStyle;rounded=0;orthogonalLoop=1;jettySize=auto;html=1;" parent="1" source="oE383LGk6NYut7QMs4Kp-4" target="oE383LGk6NYut7QMs4Kp-9" edge="1">
          <mxGeometry relative="1" as="geometry" />
        </mxCell>
        <mxCell id="oE383LGk6NYut7QMs4Kp-4" value="Input&lt;div&gt;opsi&lt;/div&gt;" style="shape=parallelogram;perimeter=parallelogramPerimeter;whiteSpace=wrap;html=1;fixedSize=1;" parent="1" vertex="1">
          <mxGeometry x="275" y="230" width="120" height="60" as="geometry" />
        </mxCell>
        <mxCell id="oE383LGk6NYut7QMs4Kp-12" value="True" style="edgeStyle=orthogonalEdgeStyle;rounded=0;orthogonalLoop=1;jettySize=auto;html=1;" parent="1" source="oE383LGk6NYut7QMs4Kp-9" target="oE383LGk6NYut7QMs4Kp-11" edge="1">
          <mxGeometry relative="1" as="geometry" />
        </mxCell>
        <mxCell id="5x_SfDUfxe7ZR7lxjCxE-2" value="False" style="edgeStyle=orthogonalEdgeStyle;rounded=0;orthogonalLoop=1;jettySize=auto;html=1;" parent="1" source="oE383LGk6NYut7QMs4Kp-9" target="5x_SfDUfxe7ZR7lxjCxE-1" edge="1">
          <mxGeometry relative="1" as="geometry" />
        </mxCell>
        <mxCell id="oE383LGk6NYut7QMs4Kp-9" value="If&lt;div&gt;opsi == 1&lt;/div&gt;" style="rhombus;whiteSpace=wrap;html=1;" parent="1" vertex="1">
          <mxGeometry x="295" y="330" width="80" height="80" as="geometry" />
        </mxCell>
        <mxCell id="oE383LGk6NYut7QMs4Kp-25" value="" style="edgeStyle=orthogonalEdgeStyle;rounded=0;orthogonalLoop=1;jettySize=auto;html=1;" parent="1" source="oE383LGk6NYut7QMs4Kp-11" target="oE383LGk6NYut7QMs4Kp-24" edge="1">
          <mxGeometry relative="1" as="geometry" />
        </mxCell>
        <mxCell id="oE383LGk6NYut7QMs4Kp-11" value="Input&lt;div&gt;Username&lt;/div&gt;&lt;div&gt;Password&lt;/div&gt;" style="shape=parallelogram;perimeter=parallelogramPerimeter;whiteSpace=wrap;html=1;fixedSize=1;" parent="1" vertex="1">
          <mxGeometry x="275" y="450" width="120" height="60" as="geometry" />
        </mxCell>
        <mxCell id="oE383LGk6NYut7QMs4Kp-29" style="edgeStyle=orthogonalEdgeStyle;rounded=0;orthogonalLoop=1;jettySize=auto;html=1;exitX=0.5;exitY=1;exitDx=0;exitDy=0;" parent="1" source="oE383LGk6NYut7QMs4Kp-24" target="oE383LGk6NYut7QMs4Kp-28" edge="1">
          <mxGeometry relative="1" as="geometry" />
        </mxCell>
        <mxCell id="AhxSSJyGZ3M7bG5indau-2" style="edgeStyle=orthogonalEdgeStyle;rounded=0;orthogonalLoop=1;jettySize=auto;html=1;exitX=1;exitY=0.5;exitDx=0;exitDy=0;entryX=0.5;entryY=0;entryDx=0;entryDy=0;" parent="1" source="oE383LGk6NYut7QMs4Kp-24" target="AhxSSJyGZ3M7bG5indau-1" edge="1">
          <mxGeometry relative="1" as="geometry" />
        </mxCell>
        <mxCell id="oE383LGk6NYut7QMs4Kp-24" value="If&lt;div&gt;username == admin &amp;amp;&amp;amp; pass == 123&lt;/div&gt;" style="rhombus;whiteSpace=wrap;html=1;" parent="1" vertex="1">
          <mxGeometry x="260" y="560" width="150" height="120" as="geometry" />
        </mxCell>
        <mxCell id="oE383LGk6NYut7QMs4Kp-28" value="A" style="shape=offPageConnector;whiteSpace=wrap;html=1;fillColor=#66B2FF;" parent="1" vertex="1">
          <mxGeometry x="295" y="730" width="80" height="80" as="geometry" />
        </mxCell>
        <mxCell id="AhxSSJyGZ3M7bG5indau-1" value="B" style="shape=offPageConnector;whiteSpace=wrap;html=1;fillColor=#33FF99;" parent="1" vertex="1">
          <mxGeometry x="420" y="810" width="80" height="80" as="geometry" />
        </mxCell>
        <mxCell id="Bdny6ZiSgTdya0lCNaMM-1" value="A" style="ellipse;whiteSpace=wrap;html=1;fillColor=#66FFFF;" parent="1" vertex="1">
          <mxGeometry x="60" y="140" width="80" height="80" as="geometry" />
        </mxCell>
        <mxCell id="Bdny6ZiSgTdya0lCNaMM-4" style="edgeStyle=orthogonalEdgeStyle;rounded=0;orthogonalLoop=1;jettySize=auto;html=1;exitX=0.5;exitY=1;exitDx=0;exitDy=0;entryX=0.5;entryY=0;entryDx=0;entryDy=0;" parent="1" source="Bdny6ZiSgTdya0lCNaMM-3" target="oE383LGk6NYut7QMs4Kp-2" edge="1">
          <mxGeometry relative="1" as="geometry" />
        </mxCell>
        <mxCell id="Bdny6ZiSgTdya0lCNaMM-3" value="A" style="ellipse;whiteSpace=wrap;html=1;fillColor=#66FFFF;" parent="1" vertex="1">
          <mxGeometry x="295" y="20" width="80" height="80" as="geometry" />
        </mxCell>
        <mxCell id="5DDeNmlcKQz79ju8TSMK-2" value="False" style="edgeStyle=orthogonalEdgeStyle;rounded=0;orthogonalLoop=1;jettySize=auto;html=1;" parent="1" source="5x_SfDUfxe7ZR7lxjCxE-1" target="5DDeNmlcKQz79ju8TSMK-1" edge="1">
          <mxGeometry relative="1" as="geometry" />
        </mxCell>
        <mxCell id="5DDeNmlcKQz79ju8TSMK-4" value="True" style="edgeStyle=orthogonalEdgeStyle;rounded=0;orthogonalLoop=1;jettySize=auto;html=1;" parent="1" source="5x_SfDUfxe7ZR7lxjCxE-1" target="5DDeNmlcKQz79ju8TSMK-3" edge="1">
          <mxGeometry relative="1" as="geometry" />
        </mxCell>
        <mxCell id="5x_SfDUfxe7ZR7lxjCxE-1" value="If&lt;div&gt;opsi == 2&lt;/div&gt;" style="rhombus;whiteSpace=wrap;html=1;" parent="1" vertex="1">
          <mxGeometry x="575" y="440" width="80" height="80" as="geometry" />
        </mxCell>
        <mxCell id="5x_SfDUfxe7ZR7lxjCxE-5" value="End" style="ellipse;whiteSpace=wrap;html=1;" parent="1" vertex="1">
          <mxGeometry x="40" y="940" width="120" height="80" as="geometry" />
        </mxCell>
        <mxCell id="5DDeNmlcKQz79ju8TSMK-8" style="edgeStyle=orthogonalEdgeStyle;rounded=0;orthogonalLoop=1;jettySize=auto;html=1;exitX=0.5;exitY=1;exitDx=0;exitDy=0;entryX=1;entryY=0.5;entryDx=0;entryDy=0;" parent="1" source="5DDeNmlcKQz79ju8TSMK-1" target="5x_SfDUfxe7ZR7lxjCxE-5" edge="1">
          <mxGeometry relative="1" as="geometry">
            <mxPoint x="150" y="980" as="targetPoint" />
            <Array as="points">
              <mxPoint x="790" y="980" />
            </Array>
          </mxGeometry>
        </mxCell>
        <mxCell id="5DDeNmlcKQz79ju8TSMK-1" value="Else" style="rhombus;whiteSpace=wrap;html=1;" parent="1" vertex="1">
          <mxGeometry x="750" y="560" width="80" height="80" as="geometry" />
        </mxCell>
        <mxCell id="5DDeNmlcKQz79ju8TSMK-10" value="" style="edgeStyle=orthogonalEdgeStyle;rounded=0;orthogonalLoop=1;jettySize=auto;html=1;" parent="1" source="5DDeNmlcKQz79ju8TSMK-3" target="5DDeNmlcKQz79ju8TSMK-9" edge="1">
          <mxGeometry relative="1" as="geometry" />
        </mxCell>
        <mxCell id="5DDeNmlcKQz79ju8TSMK-3" value="Input&lt;div&gt;Username&lt;/div&gt;&lt;div&gt;Password&lt;/div&gt;" style="shape=parallelogram;perimeter=parallelogramPerimeter;whiteSpace=wrap;html=1;fixedSize=1;" parent="1" vertex="1">
          <mxGeometry x="550" y="570" width="130" height="70" as="geometry" />
        </mxCell>
        <mxCell id="5DDeNmlcKQz79ju8TSMK-7" value="A" style="ellipse;whiteSpace=wrap;html=1;fillColor=#66FFFF;" parent="1" vertex="1">
          <mxGeometry x="575" y="810" width="80" height="80" as="geometry" />
        </mxCell>
        <mxCell id="5DDeNmlcKQz79ju8TSMK-11" style="edgeStyle=orthogonalEdgeStyle;rounded=0;orthogonalLoop=1;jettySize=auto;html=1;exitX=0.5;exitY=1;exitDx=0;exitDy=0;entryX=0.5;entryY=0;entryDx=0;entryDy=0;" parent="1" source="5DDeNmlcKQz79ju8TSMK-9" target="5DDeNmlcKQz79ju8TSMK-7" edge="1">
          <mxGeometry relative="1" as="geometry" />
        </mxCell>
        <mxCell id="5DDeNmlcKQz79ju8TSMK-9" value="Output&lt;div&gt;Registrasi Berhasil! Silahkan login kembali&lt;/div&gt;" style="shape=parallelogram;perimeter=parallelogramPerimeter;whiteSpace=wrap;html=1;fixedSize=1;" parent="1" vertex="1">
          <mxGeometry x="525" y="690" width="180" height="80" as="geometry" />
        </mxCell>
      </root>
    </mxGraphModel>
  </diagram>
  <diagram id="JjmCSR9q2QgjUb7lPhfU" name="Page-2">
    <mxGraphModel dx="1235" dy="787" grid="1" gridSize="10" guides="1" tooltips="1" connect="1" arrows="1" fold="1" page="1" pageScale="1" pageWidth="850" pageHeight="1100" math="0" shadow="0">
      <root>
        <mxCell id="0" />
        <mxCell id="1" parent="0" />
        <mxCell id="FawHb7JUUYFlNQJLcf-w-3" value="" style="edgeStyle=orthogonalEdgeStyle;rounded=0;orthogonalLoop=1;jettySize=auto;html=1;" parent="1" source="FawHb7JUUYFlNQJLcf-w-1" target="FawHb7JUUYFlNQJLcf-w-2" edge="1">
          <mxGeometry relative="1" as="geometry" />
        </mxCell>
        <mxCell id="FawHb7JUUYFlNQJLcf-w-1" value="A" style="shape=offPageConnector;whiteSpace=wrap;html=1;fillColor=#66B2FF;" parent="1" vertex="1">
          <mxGeometry x="115" y="20" width="80" height="80" as="geometry" />
        </mxCell>
        <mxCell id="FawHb7JUUYFlNQJLcf-w-7" value="" style="edgeStyle=orthogonalEdgeStyle;rounded=0;orthogonalLoop=1;jettySize=auto;html=1;" parent="1" source="FawHb7JUUYFlNQJLcf-w-2" target="FawHb7JUUYFlNQJLcf-w-6" edge="1">
          <mxGeometry relative="1" as="geometry" />
        </mxCell>
        <mxCell id="FawHb7JUUYFlNQJLcf-w-2" value="Output&lt;br&gt;1. Lihat Destinasi&lt;div&gt;2. Tambah Destinasi&lt;/div&gt;&lt;div&gt;3. Edit Destinasi&lt;/div&gt;&lt;div&gt;4. Hapus Destinasi&lt;/div&gt;&lt;div&gt;5. Daftar Pemesanan&lt;/div&gt;&lt;div&gt;6. Cari Data Pemesanan&lt;/div&gt;&lt;div&gt;7. Statistik Pemasanan&lt;/div&gt;&lt;div&gt;8. Logout&lt;/div&gt;" style="shape=parallelogram;perimeter=parallelogramPerimeter;whiteSpace=wrap;html=1;fixedSize=1;" parent="1" vertex="1">
          <mxGeometry x="57.5" y="130" width="195" height="130" as="geometry" />
        </mxCell>
        <mxCell id="FawHb7JUUYFlNQJLcf-w-9" value="" style="edgeStyle=orthogonalEdgeStyle;rounded=0;orthogonalLoop=1;jettySize=auto;html=1;" parent="1" source="FawHb7JUUYFlNQJLcf-w-6" target="FawHb7JUUYFlNQJLcf-w-8" edge="1">
          <mxGeometry relative="1" as="geometry" />
        </mxCell>
        <mxCell id="FawHb7JUUYFlNQJLcf-w-6" value="Input&lt;div&gt;optAdmin&lt;/div&gt;" style="shape=parallelogram;perimeter=parallelogramPerimeter;whiteSpace=wrap;html=1;fixedSize=1;" parent="1" vertex="1">
          <mxGeometry x="95" y="310" width="120" height="60" as="geometry" />
        </mxCell>
        <mxCell id="dWW3dwcheKeeNbVfhbsl-2" value="True" style="edgeStyle=orthogonalEdgeStyle;rounded=0;orthogonalLoop=1;jettySize=auto;html=1;" parent="1" source="FawHb7JUUYFlNQJLcf-w-8" target="dWW3dwcheKeeNbVfhbsl-1" edge="1">
          <mxGeometry relative="1" as="geometry" />
        </mxCell>
        <mxCell id="dWW3dwcheKeeNbVfhbsl-4" value="False" style="edgeStyle=orthogonalEdgeStyle;rounded=0;orthogonalLoop=1;jettySize=auto;html=1;" parent="1" source="FawHb7JUUYFlNQJLcf-w-8" target="dWW3dwcheKeeNbVfhbsl-3" edge="1">
          <mxGeometry relative="1" as="geometry" />
        </mxCell>
        <mxCell id="FawHb7JUUYFlNQJLcf-w-8" value="case 1" style="rhombus;whiteSpace=wrap;html=1;" parent="1" vertex="1">
          <mxGeometry x="100" y="410" width="110" height="90" as="geometry" />
        </mxCell>
        <mxCell id="4CgLWwA9Xti8NT3Vqyx_-1" style="edgeStyle=orthogonalEdgeStyle;rounded=0;orthogonalLoop=1;jettySize=auto;html=1;exitX=0;exitY=0.5;exitDx=0;exitDy=0;entryX=0;entryY=0.5;entryDx=0;entryDy=0;" parent="1" source="dWW3dwcheKeeNbVfhbsl-1" target="FawHb7JUUYFlNQJLcf-w-2" edge="1">
          <mxGeometry relative="1" as="geometry">
            <Array as="points">
              <mxPoint x="40" y="575" />
              <mxPoint x="40" y="195" />
            </Array>
          </mxGeometry>
        </mxCell>
        <mxCell id="dWW3dwcheKeeNbVfhbsl-1" value="Output&lt;div&gt;Tamplikan Table Daftar Destinasi&lt;/div&gt;" style="shape=parallelogram;perimeter=parallelogramPerimeter;whiteSpace=wrap;html=1;fixedSize=1;" parent="1" vertex="1">
          <mxGeometry x="70" y="540" width="170" height="70" as="geometry" />
        </mxCell>
        <mxCell id="dWW3dwcheKeeNbVfhbsl-6" value="True" style="edgeStyle=orthogonalEdgeStyle;rounded=0;orthogonalLoop=1;jettySize=auto;html=1;" parent="1" source="dWW3dwcheKeeNbVfhbsl-3" target="dWW3dwcheKeeNbVfhbsl-5" edge="1">
          <mxGeometry relative="1" as="geometry" />
        </mxCell>
        <mxCell id="dWW3dwcheKeeNbVfhbsl-8" value="False" style="edgeStyle=orthogonalEdgeStyle;rounded=0;orthogonalLoop=1;jettySize=auto;html=1;" parent="1" source="dWW3dwcheKeeNbVfhbsl-3" target="dWW3dwcheKeeNbVfhbsl-7" edge="1">
          <mxGeometry relative="1" as="geometry" />
        </mxCell>
        <mxCell id="dWW3dwcheKeeNbVfhbsl-3" value="&amp;nbsp;case 2" style="rhombus;whiteSpace=wrap;html=1;" parent="1" vertex="1">
          <mxGeometry x="305" y="540" width="110" height="90" as="geometry" />
        </mxCell>
        <mxCell id="4CgLWwA9Xti8NT3Vqyx_-7" value="" style="edgeStyle=orthogonalEdgeStyle;rounded=0;orthogonalLoop=1;jettySize=auto;html=1;" parent="1" source="dWW3dwcheKeeNbVfhbsl-5" target="4CgLWwA9Xti8NT3Vqyx_-6" edge="1">
          <mxGeometry relative="1" as="geometry" />
        </mxCell>
        <mxCell id="dWW3dwcheKeeNbVfhbsl-5" value="Input&lt;div&gt;Destinasi&lt;/div&gt;&lt;div&gt;Lokasi&lt;/div&gt;&lt;div&gt;Tanggal&lt;/div&gt;&lt;div&gt;Harga Tiket&lt;/div&gt;&lt;div&gt;Stok Tiket&lt;/div&gt;" style="shape=parallelogram;perimeter=parallelogramPerimeter;whiteSpace=wrap;html=1;fixedSize=1;" parent="1" vertex="1">
          <mxGeometry x="282.5" y="660" width="155" height="90" as="geometry" />
        </mxCell>
        <mxCell id="dWW3dwcheKeeNbVfhbsl-10" value="True" style="edgeStyle=orthogonalEdgeStyle;rounded=0;orthogonalLoop=1;jettySize=auto;html=1;" parent="1" source="dWW3dwcheKeeNbVfhbsl-7" target="dWW3dwcheKeeNbVfhbsl-9" edge="1">
          <mxGeometry relative="1" as="geometry" />
        </mxCell>
        <mxCell id="dWW3dwcheKeeNbVfhbsl-20" value="False" style="edgeStyle=orthogonalEdgeStyle;rounded=0;orthogonalLoop=1;jettySize=auto;html=1;" parent="1" source="dWW3dwcheKeeNbVfhbsl-7" target="dWW3dwcheKeeNbVfhbsl-19" edge="1">
          <mxGeometry relative="1" as="geometry" />
        </mxCell>
        <mxCell id="dWW3dwcheKeeNbVfhbsl-7" value="case 3" style="rhombus;whiteSpace=wrap;html=1;" parent="1" vertex="1">
          <mxGeometry x="510" y="680" width="110" height="90" as="geometry" />
        </mxCell>
        <mxCell id="dWW3dwcheKeeNbVfhbsl-14" value="" style="edgeStyle=orthogonalEdgeStyle;rounded=0;orthogonalLoop=1;jettySize=auto;html=1;" parent="1" source="dWW3dwcheKeeNbVfhbsl-9" target="dWW3dwcheKeeNbVfhbsl-13" edge="1">
          <mxGeometry relative="1" as="geometry" />
        </mxCell>
        <mxCell id="dWW3dwcheKeeNbVfhbsl-9" value="Output&lt;div&gt;Tampilkan Daftar Destinasi&lt;/div&gt;" style="shape=parallelogram;perimeter=parallelogramPerimeter;whiteSpace=wrap;html=1;fixedSize=1;" parent="1" vertex="1">
          <mxGeometry x="505" y="800" width="120" height="60" as="geometry" />
        </mxCell>
        <mxCell id="dWW3dwcheKeeNbVfhbsl-16" value="" style="edgeStyle=orthogonalEdgeStyle;rounded=0;orthogonalLoop=1;jettySize=auto;html=1;" parent="1" source="dWW3dwcheKeeNbVfhbsl-13" target="dWW3dwcheKeeNbVfhbsl-15" edge="1">
          <mxGeometry relative="1" as="geometry" />
        </mxCell>
        <mxCell id="dWW3dwcheKeeNbVfhbsl-13" value="Input&lt;div&gt;num (yang ingin di edit)&lt;/div&gt;" style="shape=parallelogram;perimeter=parallelogramPerimeter;whiteSpace=wrap;html=1;fixedSize=1;" parent="1" vertex="1">
          <mxGeometry x="505" y="890" width="120" height="60" as="geometry" />
        </mxCell>
        <mxCell id="dWW3dwcheKeeNbVfhbsl-18" value="" style="edgeStyle=orthogonalEdgeStyle;rounded=0;orthogonalLoop=1;jettySize=auto;html=1;" parent="1" source="dWW3dwcheKeeNbVfhbsl-15" target="dWW3dwcheKeeNbVfhbsl-17" edge="1">
          <mxGeometry relative="1" as="geometry" />
        </mxCell>
        <mxCell id="dWW3dwcheKeeNbVfhbsl-15" value="Output&lt;div&gt;Tampilkan bagian yang ingin di edit&lt;/div&gt;" style="shape=parallelogram;perimeter=parallelogramPerimeter;whiteSpace=wrap;html=1;fixedSize=1;" parent="1" vertex="1">
          <mxGeometry x="490" y="980" width="150" height="70" as="geometry" />
        </mxCell>
        <mxCell id="4CgLWwA9Xti8NT3Vqyx_-10" value="" style="edgeStyle=orthogonalEdgeStyle;rounded=0;orthogonalLoop=1;jettySize=auto;html=1;" parent="1" source="dWW3dwcheKeeNbVfhbsl-17" target="4CgLWwA9Xti8NT3Vqyx_-9" edge="1">
          <mxGeometry relative="1" as="geometry" />
        </mxCell>
        <mxCell id="dWW3dwcheKeeNbVfhbsl-17" value="Input&lt;div&gt;editOpt&lt;/div&gt;" style="shape=parallelogram;perimeter=parallelogramPerimeter;whiteSpace=wrap;html=1;fixedSize=1;" parent="1" vertex="1">
          <mxGeometry x="505" y="1080" width="120" height="60" as="geometry" />
        </mxCell>
        <mxCell id="dWW3dwcheKeeNbVfhbsl-22" value="True" style="edgeStyle=orthogonalEdgeStyle;rounded=0;orthogonalLoop=1;jettySize=auto;html=1;" parent="1" source="dWW3dwcheKeeNbVfhbsl-19" target="dWW3dwcheKeeNbVfhbsl-21" edge="1">
          <mxGeometry relative="1" as="geometry" />
        </mxCell>
        <mxCell id="G8wMiq2KSuNbhUyEYZum-2" value="False" style="edgeStyle=orthogonalEdgeStyle;rounded=0;orthogonalLoop=1;jettySize=auto;html=1;" parent="1" source="dWW3dwcheKeeNbVfhbsl-19" target="G8wMiq2KSuNbhUyEYZum-1" edge="1">
          <mxGeometry relative="1" as="geometry" />
        </mxCell>
        <mxCell id="dWW3dwcheKeeNbVfhbsl-19" value="case 4" style="rhombus;whiteSpace=wrap;html=1;" parent="1" vertex="1">
          <mxGeometry x="705" y="785" width="110" height="90" as="geometry" />
        </mxCell>
        <mxCell id="dWW3dwcheKeeNbVfhbsl-24" value="" style="edgeStyle=orthogonalEdgeStyle;rounded=0;orthogonalLoop=1;jettySize=auto;html=1;" parent="1" source="dWW3dwcheKeeNbVfhbsl-21" target="dWW3dwcheKeeNbVfhbsl-23" edge="1">
          <mxGeometry relative="1" as="geometry" />
        </mxCell>
        <mxCell id="dWW3dwcheKeeNbVfhbsl-21" value="Output&lt;div&gt;Daftar Destinasi&lt;/div&gt;" style="shape=parallelogram;perimeter=parallelogramPerimeter;whiteSpace=wrap;html=1;fixedSize=1;" parent="1" vertex="1">
          <mxGeometry x="700" y="900" width="120" height="60" as="geometry" />
        </mxCell>
        <mxCell id="4CgLWwA9Xti8NT3Vqyx_-13" value="" style="edgeStyle=orthogonalEdgeStyle;rounded=0;orthogonalLoop=1;jettySize=auto;html=1;" parent="1" source="dWW3dwcheKeeNbVfhbsl-23" target="4CgLWwA9Xti8NT3Vqyx_-12" edge="1">
          <mxGeometry relative="1" as="geometry" />
        </mxCell>
        <mxCell id="dWW3dwcheKeeNbVfhbsl-23" value="Input&lt;div&gt;num (yang ingin dihapus)&lt;/div&gt;" style="shape=parallelogram;perimeter=parallelogramPerimeter;whiteSpace=wrap;html=1;fixedSize=1;" parent="1" vertex="1">
          <mxGeometry x="700" y="990" width="120" height="60" as="geometry" />
        </mxCell>
        <mxCell id="phSTV0PtNio0POWI1GFM-2" value="True" style="edgeStyle=orthogonalEdgeStyle;rounded=0;orthogonalLoop=1;jettySize=auto;html=1;" parent="1" source="dWW3dwcheKeeNbVfhbsl-25" target="phSTV0PtNio0POWI1GFM-1" edge="1">
          <mxGeometry relative="1" as="geometry" />
        </mxCell>
        <mxCell id="phSTV0PtNio0POWI1GFM-4" value="False" style="edgeStyle=orthogonalEdgeStyle;rounded=0;orthogonalLoop=1;jettySize=auto;html=1;" parent="1" source="dWW3dwcheKeeNbVfhbsl-25" target="phSTV0PtNio0POWI1GFM-3" edge="1">
          <mxGeometry relative="1" as="geometry" />
        </mxCell>
        <mxCell id="dWW3dwcheKeeNbVfhbsl-25" value="case 6" style="rhombus;whiteSpace=wrap;html=1;" parent="1" vertex="1">
          <mxGeometry x="1085" y="1057.5" width="110" height="90" as="geometry" />
        </mxCell>
        <mxCell id="4CgLWwA9Xti8NT3Vqyx_-8" style="edgeStyle=orthogonalEdgeStyle;rounded=0;orthogonalLoop=1;jettySize=auto;html=1;exitX=0.5;exitY=1;exitDx=0;exitDy=0;entryX=0;entryY=0.5;entryDx=0;entryDy=0;" parent="1" source="4CgLWwA9Xti8NT3Vqyx_-6" target="FawHb7JUUYFlNQJLcf-w-2" edge="1">
          <mxGeometry relative="1" as="geometry">
            <Array as="points">
              <mxPoint x="360" y="890" />
              <mxPoint x="40" y="890" />
              <mxPoint x="40" y="195" />
            </Array>
          </mxGeometry>
        </mxCell>
        <mxCell id="4CgLWwA9Xti8NT3Vqyx_-6" value="Output&lt;div&gt;Destinasi Berhasil Ditambahkan&lt;/div&gt;" style="shape=parallelogram;perimeter=parallelogramPerimeter;whiteSpace=wrap;html=1;fixedSize=1;" parent="1" vertex="1">
          <mxGeometry x="282.5" y="790" width="155" height="70" as="geometry" />
        </mxCell>
        <mxCell id="4CgLWwA9Xti8NT3Vqyx_-11" style="edgeStyle=orthogonalEdgeStyle;rounded=0;orthogonalLoop=1;jettySize=auto;html=1;exitX=0.5;exitY=1;exitDx=0;exitDy=0;entryX=0;entryY=0.5;entryDx=0;entryDy=0;" parent="1" source="4CgLWwA9Xti8NT3Vqyx_-9" target="FawHb7JUUYFlNQJLcf-w-2" edge="1">
          <mxGeometry relative="1" as="geometry">
            <Array as="points">
              <mxPoint x="570" y="1280" />
              <mxPoint x="40" y="1280" />
              <mxPoint x="40" y="190" />
            </Array>
          </mxGeometry>
        </mxCell>
        <mxCell id="4CgLWwA9Xti8NT3Vqyx_-9" value="Output&lt;div&gt;Destinasi berhasil Di Edit&lt;/div&gt;" style="shape=parallelogram;perimeter=parallelogramPerimeter;whiteSpace=wrap;html=1;fixedSize=1;" parent="1" vertex="1">
          <mxGeometry x="480" y="1170" width="170" height="70" as="geometry" />
        </mxCell>
        <mxCell id="4CgLWwA9Xti8NT3Vqyx_-14" style="edgeStyle=orthogonalEdgeStyle;rounded=0;orthogonalLoop=1;jettySize=auto;html=1;exitX=0.5;exitY=1;exitDx=0;exitDy=0;entryX=0;entryY=0.5;entryDx=0;entryDy=0;" parent="1" source="4CgLWwA9Xti8NT3Vqyx_-12" target="FawHb7JUUYFlNQJLcf-w-2" edge="1">
          <mxGeometry relative="1" as="geometry">
            <Array as="points">
              <mxPoint x="760" y="1370" />
              <mxPoint x="40" y="1370" />
              <mxPoint x="40" y="195" />
            </Array>
          </mxGeometry>
        </mxCell>
        <mxCell id="4CgLWwA9Xti8NT3Vqyx_-12" value="Output&lt;div&gt;Destinasi Berhasil Dihapus&lt;/div&gt;" style="shape=parallelogram;perimeter=parallelogramPerimeter;whiteSpace=wrap;html=1;fixedSize=1;" parent="1" vertex="1">
          <mxGeometry x="687.5" y="1090" width="145" height="60" as="geometry" />
        </mxCell>
        <mxCell id="G8wMiq2KSuNbhUyEYZum-3" value="False" style="edgeStyle=orthogonalEdgeStyle;rounded=0;orthogonalLoop=1;jettySize=auto;html=1;entryX=0.5;entryY=0;entryDx=0;entryDy=0;exitX=1;exitY=0.5;exitDx=0;exitDy=0;" parent="1" source="G8wMiq2KSuNbhUyEYZum-1" target="dWW3dwcheKeeNbVfhbsl-25" edge="1">
          <mxGeometry relative="1" as="geometry">
            <mxPoint x="925" y="945" as="sourcePoint" />
          </mxGeometry>
        </mxCell>
        <mxCell id="G8wMiq2KSuNbhUyEYZum-5" value="True" style="edgeStyle=orthogonalEdgeStyle;rounded=0;orthogonalLoop=1;jettySize=auto;html=1;entryX=0.5;entryY=0;entryDx=0;entryDy=0;" parent="1" source="G8wMiq2KSuNbhUyEYZum-1" target="G8wMiq2KSuNbhUyEYZum-4" edge="1">
          <mxGeometry relative="1" as="geometry">
            <mxPoint x="958.75" y="1057.5" as="targetPoint" />
          </mxGeometry>
        </mxCell>
        <mxCell id="G8wMiq2KSuNbhUyEYZum-1" value="case 5" style="rhombus;whiteSpace=wrap;html=1;" parent="1" vertex="1">
          <mxGeometry x="912.5" y="922.5" width="110" height="90" as="geometry" />
        </mxCell>
        <mxCell id="G8wMiq2KSuNbhUyEYZum-7" value="" style="edgeStyle=orthogonalEdgeStyle;rounded=0;orthogonalLoop=1;jettySize=auto;html=1;exitX=0.5;exitY=1;exitDx=0;exitDy=0;entryX=0;entryY=0.5;entryDx=0;entryDy=0;" parent="1" source="G8wMiq2KSuNbhUyEYZum-4" target="FawHb7JUUYFlNQJLcf-w-2" edge="1">
          <mxGeometry relative="1" as="geometry">
            <mxPoint x="923.6071428571427" y="1065" as="sourcePoint" />
            <mxPoint x="932.5" y="1120" as="targetPoint" />
            <Array as="points">
              <mxPoint x="968" y="1430" />
              <mxPoint x="40" y="1430" />
              <mxPoint x="40" y="195" />
            </Array>
          </mxGeometry>
        </mxCell>
        <mxCell id="G8wMiq2KSuNbhUyEYZum-4" value="Output&lt;div&gt;Daftar Data Pemesanan&lt;/div&gt;" style="shape=parallelogram;perimeter=parallelogramPerimeter;whiteSpace=wrap;html=1;fixedSize=1;" parent="1" vertex="1">
          <mxGeometry x="885" y="1057.5" width="165" height="60" as="geometry" />
        </mxCell>
        <mxCell id="G8wMiq2KSuNbhUyEYZum-15" value="" style="edgeStyle=orthogonalEdgeStyle;rounded=0;orthogonalLoop=1;jettySize=auto;html=1;" parent="1" edge="1">
          <mxGeometry relative="1" as="geometry">
            <mxPoint x="1198.75" y="1410" as="sourcePoint" />
          </mxGeometry>
        </mxCell>
        <mxCell id="phSTV0PtNio0POWI1GFM-8" value="" style="edgeStyle=orthogonalEdgeStyle;rounded=0;orthogonalLoop=1;jettySize=auto;html=1;" parent="1" source="phSTV0PtNio0POWI1GFM-1" target="phSTV0PtNio0POWI1GFM-7" edge="1">
          <mxGeometry relative="1" as="geometry" />
        </mxCell>
        <mxCell id="phSTV0PtNio0POWI1GFM-1" value="Output&lt;div&gt;Daftar Destinasi&lt;/div&gt;" style="shape=parallelogram;perimeter=parallelogramPerimeter;whiteSpace=wrap;html=1;fixedSize=1;" parent="1" vertex="1">
          <mxGeometry x="1070" y="1195" width="140" height="60" as="geometry" />
        </mxCell>
        <mxCell id="phSTV0PtNio0POWI1GFM-6" value="False" style="edgeStyle=orthogonalEdgeStyle;rounded=0;orthogonalLoop=1;jettySize=auto;html=1;" parent="1" source="phSTV0PtNio0POWI1GFM-3" target="phSTV0PtNio0POWI1GFM-5" edge="1">
          <mxGeometry relative="1" as="geometry" />
        </mxCell>
        <mxCell id="phSTV0PtNio0POWI1GFM-13" value="True" style="edgeStyle=orthogonalEdgeStyle;rounded=0;orthogonalLoop=1;jettySize=auto;html=1;" parent="1" source="phSTV0PtNio0POWI1GFM-3" target="phSTV0PtNio0POWI1GFM-12" edge="1">
          <mxGeometry relative="1" as="geometry" />
        </mxCell>
        <mxCell id="phSTV0PtNio0POWI1GFM-3" value="case 7" style="rhombus;whiteSpace=wrap;html=1;" parent="1" vertex="1">
          <mxGeometry x="1275" y="1165" width="110" height="90" as="geometry" />
        </mxCell>
        <mxCell id="7M9IkeQc3yqt1cAkX0e8-3" style="edgeStyle=orthogonalEdgeStyle;rounded=0;orthogonalLoop=1;jettySize=auto;html=1;exitX=0.5;exitY=1;exitDx=0;exitDy=0;entryX=0.5;entryY=0;entryDx=0;entryDy=0;" parent="1" source="phSTV0PtNio0POWI1GFM-5" target="7M9IkeQc3yqt1cAkX0e8-2" edge="1">
          <mxGeometry relative="1" as="geometry" />
        </mxCell>
        <mxCell id="phSTV0PtNio0POWI1GFM-5" value="case 7" style="rhombus;whiteSpace=wrap;html=1;" parent="1" vertex="1">
          <mxGeometry x="1450" y="1280" width="110" height="90" as="geometry" />
        </mxCell>
        <mxCell id="phSTV0PtNio0POWI1GFM-10" value="" style="edgeStyle=orthogonalEdgeStyle;rounded=0;orthogonalLoop=1;jettySize=auto;html=1;" parent="1" source="phSTV0PtNio0POWI1GFM-7" target="phSTV0PtNio0POWI1GFM-9" edge="1">
          <mxGeometry relative="1" as="geometry" />
        </mxCell>
        <mxCell id="phSTV0PtNio0POWI1GFM-7" value="Input&lt;div&gt;pilihan&lt;/div&gt;" style="shape=parallelogram;perimeter=parallelogramPerimeter;whiteSpace=wrap;html=1;fixedSize=1;" parent="1" vertex="1">
          <mxGeometry x="1070" y="1295" width="140" height="60" as="geometry" />
        </mxCell>
        <mxCell id="phSTV0PtNio0POWI1GFM-11" style="edgeStyle=orthogonalEdgeStyle;rounded=0;orthogonalLoop=1;jettySize=auto;html=1;exitX=0.5;exitY=1;exitDx=0;exitDy=0;entryX=0;entryY=0.5;entryDx=0;entryDy=0;" parent="1" source="phSTV0PtNio0POWI1GFM-9" target="FawHb7JUUYFlNQJLcf-w-2" edge="1">
          <mxGeometry relative="1" as="geometry">
            <Array as="points">
              <mxPoint x="1140" y="1510" />
              <mxPoint x="40" y="1510" />
              <mxPoint x="40" y="195" />
            </Array>
          </mxGeometry>
        </mxCell>
        <mxCell id="phSTV0PtNio0POWI1GFM-9" value="&lt;div&gt;Output&lt;/div&gt;&lt;div&gt;Bookingan&lt;/div&gt;" style="shape=parallelogram;perimeter=parallelogramPerimeter;whiteSpace=wrap;html=1;fixedSize=1;" parent="1" vertex="1">
          <mxGeometry x="1070" y="1400" width="140" height="60" as="geometry" />
        </mxCell>
        <mxCell id="phSTV0PtNio0POWI1GFM-14" style="edgeStyle=orthogonalEdgeStyle;rounded=0;orthogonalLoop=1;jettySize=auto;html=1;exitX=0.5;exitY=1;exitDx=0;exitDy=0;entryX=0;entryY=0.5;entryDx=0;entryDy=0;" parent="1" source="phSTV0PtNio0POWI1GFM-12" target="FawHb7JUUYFlNQJLcf-w-2" edge="1">
          <mxGeometry relative="1" as="geometry">
            <Array as="points">
              <mxPoint x="1330" y="1580" />
              <mxPoint x="40" y="1580" />
              <mxPoint x="40" y="195" />
            </Array>
          </mxGeometry>
        </mxCell>
        <mxCell id="phSTV0PtNio0POWI1GFM-12" value="Output&lt;div&gt;Tampilkan Statistik Booking&lt;/div&gt;" style="shape=parallelogram;perimeter=parallelogramPerimeter;whiteSpace=wrap;html=1;fixedSize=1;" parent="1" vertex="1">
          <mxGeometry x="1260" y="1320" width="140" height="60" as="geometry" />
        </mxCell>
        <mxCell id="7M9IkeQc3yqt1cAkX0e8-2" value="A" style="ellipse;whiteSpace=wrap;html=1;fillColor=#66FFFF;" parent="1" vertex="1">
          <mxGeometry x="1465" y="1440" width="80" height="80" as="geometry" />
        </mxCell>
      </root>
    </mxGraphModel>
  </diagram>
  <diagram id="-_1-USFnhOPlEm1KLhRE" name="Page-3">
    <mxGraphModel dx="1000" dy="637" grid="1" gridSize="10" guides="1" tooltips="1" connect="1" arrows="1" fold="1" page="1" pageScale="1" pageWidth="850" pageHeight="1100" math="0" shadow="0">
      <root>
        <mxCell id="0" />
        <mxCell id="1" parent="0" />
        <mxCell id="Q3O37qFJdlnSlmz5nEvL-1" value="" style="edgeStyle=orthogonalEdgeStyle;rounded=0;orthogonalLoop=1;jettySize=auto;html=1;" parent="1" source="Q3O37qFJdlnSlmz5nEvL-2" target="Q3O37qFJdlnSlmz5nEvL-4" edge="1">
          <mxGeometry relative="1" as="geometry" />
        </mxCell>
        <mxCell id="Q3O37qFJdlnSlmz5nEvL-2" value="B" style="shape=offPageConnector;whiteSpace=wrap;html=1;fillColor=#33FF99;" parent="1" vertex="1">
          <mxGeometry x="120" y="20" width="80" height="80" as="geometry" />
        </mxCell>
        <mxCell id="Q3O37qFJdlnSlmz5nEvL-3" value="" style="edgeStyle=orthogonalEdgeStyle;rounded=0;orthogonalLoop=1;jettySize=auto;html=1;" parent="1" source="Q3O37qFJdlnSlmz5nEvL-4" target="Q3O37qFJdlnSlmz5nEvL-6" edge="1">
          <mxGeometry relative="1" as="geometry" />
        </mxCell>
        <mxCell id="Q3O37qFJdlnSlmz5nEvL-4" value="Output&lt;div&gt;1. Lihat Destinasi&lt;br&gt;2. Pesan Tiket Wisata&lt;div&gt;3. Lihat Tiket yang dipesan&lt;/div&gt;&lt;div&gt;4. Batalkan Tiket Pesanan&lt;/div&gt;&lt;div&gt;5. Sortir Data&lt;/div&gt;&lt;div&gt;&lt;span style=&quot;background-color: initial;&quot;&gt;6. Logout&lt;/span&gt;&lt;/div&gt;&lt;/div&gt;" style="shape=parallelogram;perimeter=parallelogramPerimeter;whiteSpace=wrap;html=1;fixedSize=1;" parent="1" vertex="1">
          <mxGeometry x="61.25" y="130" width="197.5" height="120" as="geometry" />
        </mxCell>
        <mxCell id="2rf1fw00VptoHaRwMf6T-4" style="edgeStyle=orthogonalEdgeStyle;rounded=0;orthogonalLoop=1;jettySize=auto;html=1;exitX=0.5;exitY=1;exitDx=0;exitDy=0;" parent="1" source="Q3O37qFJdlnSlmz5nEvL-6" target="2rf1fw00VptoHaRwMf6T-2" edge="1">
          <mxGeometry relative="1" as="geometry" />
        </mxCell>
        <mxCell id="Q3O37qFJdlnSlmz5nEvL-6" value="Input&lt;div&gt;opsiuser&lt;/div&gt;" style="shape=parallelogram;perimeter=parallelogramPerimeter;whiteSpace=wrap;html=1;fixedSize=1;" parent="1" vertex="1">
          <mxGeometry x="100" y="280" width="120" height="60" as="geometry" />
        </mxCell>
        <mxCell id="Q3O37qFJdlnSlmz5nEvL-7" value="True" style="edgeStyle=orthogonalEdgeStyle;rounded=0;orthogonalLoop=1;jettySize=auto;html=1;" parent="1" source="Q3O37qFJdlnSlmz5nEvL-9" target="Q3O37qFJdlnSlmz5nEvL-11" edge="1">
          <mxGeometry relative="1" as="geometry" />
        </mxCell>
        <mxCell id="Q3O37qFJdlnSlmz5nEvL-8" value="False" style="edgeStyle=orthogonalEdgeStyle;rounded=0;orthogonalLoop=1;jettySize=auto;html=1;" parent="1" source="Q3O37qFJdlnSlmz5nEvL-9" target="Q3O37qFJdlnSlmz5nEvL-14" edge="1">
          <mxGeometry relative="1" as="geometry" />
        </mxCell>
        <mxCell id="Q3O37qFJdlnSlmz5nEvL-9" value="case 2" style="rhombus;whiteSpace=wrap;html=1;" parent="1" vertex="1">
          <mxGeometry x="300" y="470" width="110" height="90" as="geometry" />
        </mxCell>
        <mxCell id="vGmWZ7dHVLc971IwrjMO-3" value="" style="edgeStyle=orthogonalEdgeStyle;rounded=0;orthogonalLoop=1;jettySize=auto;html=1;" parent="1" source="Q3O37qFJdlnSlmz5nEvL-11" target="vGmWZ7dHVLc971IwrjMO-2" edge="1">
          <mxGeometry relative="1" as="geometry" />
        </mxCell>
        <mxCell id="Q3O37qFJdlnSlmz5nEvL-11" value="Output&lt;div&gt;Tamplikan Table Daftar Destinasi&lt;/div&gt;" style="shape=parallelogram;perimeter=parallelogramPerimeter;whiteSpace=wrap;html=1;fixedSize=1;" parent="1" vertex="1">
          <mxGeometry x="270" y="600" width="170" height="70" as="geometry" />
        </mxCell>
        <mxCell id="Q3O37qFJdlnSlmz5nEvL-13" value="False" style="edgeStyle=orthogonalEdgeStyle;rounded=0;orthogonalLoop=1;jettySize=auto;html=1;" parent="1" source="Q3O37qFJdlnSlmz5nEvL-14" target="Q3O37qFJdlnSlmz5nEvL-19" edge="1">
          <mxGeometry relative="1" as="geometry" />
        </mxCell>
        <mxCell id="vGmWZ7dHVLc971IwrjMO-8" value="True" style="edgeStyle=orthogonalEdgeStyle;rounded=0;orthogonalLoop=1;jettySize=auto;html=1;" parent="1" source="Q3O37qFJdlnSlmz5nEvL-14" target="vGmWZ7dHVLc971IwrjMO-7" edge="1">
          <mxGeometry relative="1" as="geometry" />
        </mxCell>
        <mxCell id="Q3O37qFJdlnSlmz5nEvL-14" value="case 3" style="rhombus;whiteSpace=wrap;html=1;" parent="1" vertex="1">
          <mxGeometry x="505" y="600" width="110" height="90" as="geometry" />
        </mxCell>
        <mxCell id="39Ml61k-IT2FFfd9A7Lt-3" value="True" style="edgeStyle=orthogonalEdgeStyle;rounded=0;orthogonalLoop=1;jettySize=auto;html=1;" parent="1" source="Q3O37qFJdlnSlmz5nEvL-19" target="39Ml61k-IT2FFfd9A7Lt-2" edge="1">
          <mxGeometry relative="1" as="geometry" />
        </mxCell>
        <mxCell id="z11USZxfs7ADT-IMEMkd-35" value="False" style="edgeStyle=orthogonalEdgeStyle;rounded=0;orthogonalLoop=1;jettySize=auto;html=1;exitX=1;exitY=0.5;exitDx=0;exitDy=0;entryX=0.5;entryY=0;entryDx=0;entryDy=0;" parent="1" source="Q3O37qFJdlnSlmz5nEvL-19" target="z11USZxfs7ADT-IMEMkd-2" edge="1">
          <mxGeometry relative="1" as="geometry" />
        </mxCell>
        <mxCell id="Q3O37qFJdlnSlmz5nEvL-19" value="case 4" style="rhombus;whiteSpace=wrap;html=1;" parent="1" vertex="1">
          <mxGeometry x="690" y="740" width="110" height="90" as="geometry" />
        </mxCell>
        <mxCell id="Q3O37qFJdlnSlmz5nEvL-43" value="A" style="ellipse;whiteSpace=wrap;html=1;fillColor=#66FFFF;" parent="1" vertex="1">
          <mxGeometry x="1235" y="1065" width="80" height="80" as="geometry" />
        </mxCell>
        <mxCell id="vGmWZ7dHVLc971IwrjMO-5" value="" style="edgeStyle=orthogonalEdgeStyle;rounded=0;orthogonalLoop=1;jettySize=auto;html=1;" parent="1" source="vGmWZ7dHVLc971IwrjMO-2" target="vGmWZ7dHVLc971IwrjMO-4" edge="1">
          <mxGeometry relative="1" as="geometry" />
        </mxCell>
        <mxCell id="vGmWZ7dHVLc971IwrjMO-2" value="Input&lt;div&gt;nomor destinasi yang dipesan&lt;/div&gt;" style="shape=parallelogram;perimeter=parallelogramPerimeter;whiteSpace=wrap;html=1;fixedSize=1;" parent="1" vertex="1">
          <mxGeometry x="280" y="710" width="150" height="60" as="geometry" />
        </mxCell>
        <mxCell id="2rf1fw00VptoHaRwMf6T-8" style="edgeStyle=orthogonalEdgeStyle;rounded=0;orthogonalLoop=1;jettySize=auto;html=1;exitX=0;exitY=0.5;exitDx=0;exitDy=0;entryX=0;entryY=0.5;entryDx=0;entryDy=0;" parent="1" source="vGmWZ7dHVLc971IwrjMO-4" target="Q3O37qFJdlnSlmz5nEvL-4" edge="1">
          <mxGeometry relative="1" as="geometry">
            <Array as="points">
              <mxPoint x="40" y="840" />
              <mxPoint x="40" y="190" />
            </Array>
          </mxGeometry>
        </mxCell>
        <mxCell id="vGmWZ7dHVLc971IwrjMO-4" value="Output&lt;div&gt;Tiket Berhasil Dipesan&lt;/div&gt;" style="shape=parallelogram;perimeter=parallelogramPerimeter;whiteSpace=wrap;html=1;fixedSize=1;" parent="1" vertex="1">
          <mxGeometry x="295" y="810" width="120" height="60" as="geometry" />
        </mxCell>
        <mxCell id="2rf1fw00VptoHaRwMf6T-9" style="edgeStyle=orthogonalEdgeStyle;rounded=0;orthogonalLoop=1;jettySize=auto;html=1;exitX=0.5;exitY=1;exitDx=0;exitDy=0;entryX=0;entryY=0.5;entryDx=0;entryDy=0;" parent="1" source="vGmWZ7dHVLc971IwrjMO-7" target="Q3O37qFJdlnSlmz5nEvL-4" edge="1">
          <mxGeometry relative="1" as="geometry">
            <mxPoint x="50" y="290" as="targetPoint" />
            <Array as="points">
              <mxPoint x="560" y="920" />
              <mxPoint x="40" y="920" />
              <mxPoint x="40" y="190" />
            </Array>
          </mxGeometry>
        </mxCell>
        <mxCell id="vGmWZ7dHVLc971IwrjMO-7" value="Output&lt;div&gt;Tamplikan Table Tiket Yang dipesan&lt;/div&gt;" style="shape=parallelogram;perimeter=parallelogramPerimeter;whiteSpace=wrap;html=1;fixedSize=1;" parent="1" vertex="1">
          <mxGeometry x="472.5" y="740" width="175" height="70" as="geometry" />
        </mxCell>
        <mxCell id="39Ml61k-IT2FFfd9A7Lt-5" value="" style="edgeStyle=orthogonalEdgeStyle;rounded=0;orthogonalLoop=1;jettySize=auto;html=1;" parent="1" source="39Ml61k-IT2FFfd9A7Lt-2" target="39Ml61k-IT2FFfd9A7Lt-4" edge="1">
          <mxGeometry relative="1" as="geometry" />
        </mxCell>
        <mxCell id="39Ml61k-IT2FFfd9A7Lt-2" value="Input&lt;div&gt;Nomor Tiket yang ingin dibatalkan&lt;/div&gt;" style="shape=parallelogram;perimeter=parallelogramPerimeter;whiteSpace=wrap;html=1;fixedSize=1;" parent="1" vertex="1">
          <mxGeometry x="665" y="880" width="160" height="65" as="geometry" />
        </mxCell>
        <mxCell id="2rf1fw00VptoHaRwMf6T-10" style="edgeStyle=orthogonalEdgeStyle;rounded=0;orthogonalLoop=1;jettySize=auto;html=1;exitX=0.5;exitY=1;exitDx=0;exitDy=0;entryX=0;entryY=0.5;entryDx=0;entryDy=0;" parent="1" source="39Ml61k-IT2FFfd9A7Lt-4" target="Q3O37qFJdlnSlmz5nEvL-4" edge="1">
          <mxGeometry relative="1" as="geometry">
            <mxPoint x="725" y="1060" as="sourcePoint" />
            <mxPoint x="62.5" y="190" as="targetPoint" />
            <Array as="points">
              <mxPoint x="745" y="1080" />
              <mxPoint x="40" y="1080" />
              <mxPoint x="40" y="190" />
            </Array>
          </mxGeometry>
        </mxCell>
        <mxCell id="39Ml61k-IT2FFfd9A7Lt-4" value="&lt;div&gt;Output&lt;/div&gt;Tiket Berhasil Dibatalkan" style="shape=parallelogram;perimeter=parallelogramPerimeter;whiteSpace=wrap;html=1;fixedSize=1;" parent="1" vertex="1">
          <mxGeometry x="685" y="1000" width="120" height="60" as="geometry" />
        </mxCell>
        <mxCell id="z11USZxfs7ADT-IMEMkd-1" value="True" style="edgeStyle=orthogonalEdgeStyle;rounded=0;orthogonalLoop=1;jettySize=auto;html=1;entryX=0.5;entryY=0;entryDx=0;entryDy=0;" parent="1" source="z11USZxfs7ADT-IMEMkd-2" target="z11USZxfs7ADT-IMEMkd-4" edge="1">
          <mxGeometry relative="1" as="geometry">
            <mxPoint x="938.75" y="965" as="targetPoint" />
          </mxGeometry>
        </mxCell>
        <mxCell id="kig5WdxVwH_8zVM2y1TM-1" value="False" style="edgeStyle=orthogonalEdgeStyle;rounded=0;orthogonalLoop=1;jettySize=auto;html=1;" parent="1" source="z11USZxfs7ADT-IMEMkd-2" target="kig5WdxVwH_8zVM2y1TM-2" edge="1">
          <mxGeometry relative="1" as="geometry">
            <mxPoint x="1130" y="950" as="targetPoint" />
          </mxGeometry>
        </mxCell>
        <mxCell id="z11USZxfs7ADT-IMEMkd-2" value="case 5" style="rhombus;whiteSpace=wrap;html=1;" parent="1" vertex="1">
          <mxGeometry x="892.5" y="830" width="110" height="90" as="geometry" />
        </mxCell>
        <mxCell id="z11USZxfs7ADT-IMEMkd-3" value="" style="edgeStyle=orthogonalEdgeStyle;rounded=0;orthogonalLoop=1;jettySize=auto;html=1;exitX=0.5;exitY=1;exitDx=0;exitDy=0;" parent="1" source="z11USZxfs7ADT-IMEMkd-4" target="z11USZxfs7ADT-IMEMkd-6" edge="1">
          <mxGeometry relative="1" as="geometry">
            <mxPoint x="938.6071428571427" y="1025" as="sourcePoint" />
          </mxGeometry>
        </mxCell>
        <mxCell id="z11USZxfs7ADT-IMEMkd-4" value="Output&lt;div&gt;Daftar Data yang dapat di sortir&lt;/div&gt;" style="shape=parallelogram;perimeter=parallelogramPerimeter;whiteSpace=wrap;html=1;fixedSize=1;" parent="1" vertex="1">
          <mxGeometry x="865" y="965" width="165" height="60" as="geometry" />
        </mxCell>
        <mxCell id="z11USZxfs7ADT-IMEMkd-5" value="" style="edgeStyle=orthogonalEdgeStyle;rounded=0;orthogonalLoop=1;jettySize=auto;html=1;" parent="1" source="z11USZxfs7ADT-IMEMkd-6" target="z11USZxfs7ADT-IMEMkd-9" edge="1">
          <mxGeometry relative="1" as="geometry" />
        </mxCell>
        <mxCell id="z11USZxfs7ADT-IMEMkd-6" value="Input&lt;div&gt;pildata&lt;/div&gt;" style="shape=parallelogram;perimeter=parallelogramPerimeter;whiteSpace=wrap;html=1;fixedSize=1;" parent="1" vertex="1">
          <mxGeometry x="883.75" y="1080" width="127.5" height="50" as="geometry" />
        </mxCell>
        <mxCell id="z11USZxfs7ADT-IMEMkd-7" value="True" style="edgeStyle=orthogonalEdgeStyle;rounded=0;orthogonalLoop=1;jettySize=auto;html=1;" parent="1" source="z11USZxfs7ADT-IMEMkd-9" target="z11USZxfs7ADT-IMEMkd-10" edge="1">
          <mxGeometry relative="1" as="geometry" />
        </mxCell>
        <mxCell id="z11USZxfs7ADT-IMEMkd-8" value="False" style="edgeStyle=orthogonalEdgeStyle;rounded=0;orthogonalLoop=1;jettySize=auto;html=1;exitX=1;exitY=0.5;exitDx=0;exitDy=0;entryX=0.5;entryY=0;entryDx=0;entryDy=0;" parent="1" source="z11USZxfs7ADT-IMEMkd-9" target="z11USZxfs7ADT-IMEMkd-13" edge="1">
          <mxGeometry relative="1" as="geometry" />
        </mxCell>
        <mxCell id="z11USZxfs7ADT-IMEMkd-9" value="case 1" style="rhombus;whiteSpace=wrap;html=1;" parent="1" vertex="1">
          <mxGeometry x="907.5" y="1170" width="80" height="60" as="geometry" />
        </mxCell>
        <mxCell id="2rf1fw00VptoHaRwMf6T-11" style="edgeStyle=orthogonalEdgeStyle;rounded=0;orthogonalLoop=1;jettySize=auto;html=1;exitX=0.5;exitY=1;exitDx=0;exitDy=0;entryX=0;entryY=0.5;entryDx=0;entryDy=0;" parent="1" source="z11USZxfs7ADT-IMEMkd-10" target="Q3O37qFJdlnSlmz5nEvL-4" edge="1">
          <mxGeometry relative="1" as="geometry">
            <Array as="points">
              <mxPoint x="948" y="1350" />
              <mxPoint x="40" y="1350" />
              <mxPoint x="40" y="190" />
            </Array>
          </mxGeometry>
        </mxCell>
        <mxCell id="z11USZxfs7ADT-IMEMkd-10" value="Output&lt;div&gt;Table descanding nama wisata&lt;/div&gt;" style="shape=parallelogram;perimeter=parallelogramPerimeter;whiteSpace=wrap;html=1;fixedSize=1;" parent="1" vertex="1">
          <mxGeometry x="887.5" y="1270" width="120" height="60" as="geometry" />
        </mxCell>
        <mxCell id="z11USZxfs7ADT-IMEMkd-11" value="True" style="edgeStyle=orthogonalEdgeStyle;rounded=0;orthogonalLoop=1;jettySize=auto;html=1;" parent="1" source="z11USZxfs7ADT-IMEMkd-13" target="z11USZxfs7ADT-IMEMkd-14" edge="1">
          <mxGeometry relative="1" as="geometry" />
        </mxCell>
        <mxCell id="z11USZxfs7ADT-IMEMkd-12" value="False" style="edgeStyle=orthogonalEdgeStyle;rounded=0;orthogonalLoop=1;jettySize=auto;html=1;exitX=1;exitY=0.5;exitDx=0;exitDy=0;entryX=0.5;entryY=0;entryDx=0;entryDy=0;" parent="1" source="z11USZxfs7ADT-IMEMkd-13" target="z11USZxfs7ADT-IMEMkd-16" edge="1">
          <mxGeometry relative="1" as="geometry" />
        </mxCell>
        <mxCell id="z11USZxfs7ADT-IMEMkd-13" value="case 2" style="rhombus;whiteSpace=wrap;html=1;" parent="1" vertex="1">
          <mxGeometry x="1033.75" y="1240" width="80" height="60" as="geometry" />
        </mxCell>
        <mxCell id="hum6E8ylqFYvET7Elz7_-1" style="edgeStyle=orthogonalEdgeStyle;rounded=0;orthogonalLoop=1;jettySize=auto;html=1;exitX=0.5;exitY=1;exitDx=0;exitDy=0;entryX=0;entryY=0.5;entryDx=0;entryDy=0;" parent="1" source="z11USZxfs7ADT-IMEMkd-14" target="Q3O37qFJdlnSlmz5nEvL-4" edge="1">
          <mxGeometry relative="1" as="geometry">
            <Array as="points">
              <mxPoint x="1074" y="1420" />
              <mxPoint x="40" y="1420" />
              <mxPoint x="40" y="190" />
            </Array>
          </mxGeometry>
        </mxCell>
        <mxCell id="z11USZxfs7ADT-IMEMkd-14" value="Output&lt;div&gt;Table Ascensing harga tiket&lt;/div&gt;" style="shape=parallelogram;perimeter=parallelogramPerimeter;whiteSpace=wrap;html=1;fixedSize=1;" parent="1" vertex="1">
          <mxGeometry x="1013.75" y="1340" width="120" height="60" as="geometry" />
        </mxCell>
        <mxCell id="z11USZxfs7ADT-IMEMkd-15" value="True" style="edgeStyle=orthogonalEdgeStyle;rounded=0;orthogonalLoop=1;jettySize=auto;html=1;" parent="1" source="z11USZxfs7ADT-IMEMkd-16" target="z11USZxfs7ADT-IMEMkd-17" edge="1">
          <mxGeometry relative="1" as="geometry" />
        </mxCell>
        <mxCell id="z11USZxfs7ADT-IMEMkd-16" value="case 3" style="rhombus;whiteSpace=wrap;html=1;" parent="1" vertex="1">
          <mxGeometry x="1173.75" y="1310" width="80" height="60" as="geometry" />
        </mxCell>
        <mxCell id="hum6E8ylqFYvET7Elz7_-2" style="edgeStyle=orthogonalEdgeStyle;rounded=0;orthogonalLoop=1;jettySize=auto;html=1;exitX=0.5;exitY=1;exitDx=0;exitDy=0;entryX=0;entryY=0.5;entryDx=0;entryDy=0;" parent="1" source="z11USZxfs7ADT-IMEMkd-17" target="Q3O37qFJdlnSlmz5nEvL-4" edge="1">
          <mxGeometry relative="1" as="geometry">
            <Array as="points">
              <mxPoint x="1214" y="1500" />
              <mxPoint x="40" y="1500" />
              <mxPoint x="40" y="190" />
            </Array>
          </mxGeometry>
        </mxCell>
        <mxCell id="z11USZxfs7ADT-IMEMkd-17" value="Output&lt;div&gt;Table ascending stok tiket&lt;/div&gt;" style="shape=parallelogram;perimeter=parallelogramPerimeter;whiteSpace=wrap;html=1;fixedSize=1;" parent="1" vertex="1">
          <mxGeometry x="1158.75" y="1410" width="110" height="70" as="geometry" />
        </mxCell>
        <mxCell id="2rf1fw00VptoHaRwMf6T-1" value="True" style="edgeStyle=orthogonalEdgeStyle;rounded=0;orthogonalLoop=1;jettySize=auto;html=1;" parent="1" source="2rf1fw00VptoHaRwMf6T-2" target="2rf1fw00VptoHaRwMf6T-3" edge="1">
          <mxGeometry relative="1" as="geometry" />
        </mxCell>
        <mxCell id="2rf1fw00VptoHaRwMf6T-6" value="False" style="edgeStyle=orthogonalEdgeStyle;rounded=0;orthogonalLoop=1;jettySize=auto;html=1;exitX=1;exitY=0.5;exitDx=0;exitDy=0;entryX=0.5;entryY=0;entryDx=0;entryDy=0;" parent="1" source="2rf1fw00VptoHaRwMf6T-2" target="Q3O37qFJdlnSlmz5nEvL-9" edge="1">
          <mxGeometry relative="1" as="geometry" />
        </mxCell>
        <mxCell id="2rf1fw00VptoHaRwMf6T-2" value="case 1" style="rhombus;whiteSpace=wrap;html=1;" parent="1" vertex="1">
          <mxGeometry x="105" y="380" width="110" height="90" as="geometry" />
        </mxCell>
        <mxCell id="2rf1fw00VptoHaRwMf6T-5" style="edgeStyle=orthogonalEdgeStyle;rounded=0;orthogonalLoop=1;jettySize=auto;html=1;exitX=0;exitY=0.5;exitDx=0;exitDy=0;entryX=0;entryY=0.5;entryDx=0;entryDy=0;" parent="1" source="2rf1fw00VptoHaRwMf6T-3" target="Q3O37qFJdlnSlmz5nEvL-4" edge="1">
          <mxGeometry relative="1" as="geometry">
            <Array as="points">
              <mxPoint x="40" y="545" />
              <mxPoint x="40" y="190" />
            </Array>
          </mxGeometry>
        </mxCell>
        <mxCell id="2rf1fw00VptoHaRwMf6T-3" value="Output&lt;div&gt;Tamplikan Table Daftar Destinasi&lt;/div&gt;" style="shape=parallelogram;perimeter=parallelogramPerimeter;whiteSpace=wrap;html=1;fixedSize=1;" parent="1" vertex="1">
          <mxGeometry x="75" y="510" width="170" height="70" as="geometry" />
        </mxCell>
        <mxCell id="kig5WdxVwH_8zVM2y1TM-4" value="" style="edgeStyle=orthogonalEdgeStyle;rounded=0;orthogonalLoop=1;jettySize=auto;html=1;entryX=0.5;entryY=0;entryDx=0;entryDy=0;exitX=0.5;exitY=1;exitDx=0;exitDy=0;" parent="1" source="kig5WdxVwH_8zVM2y1TM-2" target="Q3O37qFJdlnSlmz5nEvL-43" edge="1">
          <mxGeometry relative="1" as="geometry">
            <mxPoint x="1299.378695652174" y="997.7486956521741" as="sourcePoint" />
            <mxPoint x="1299.63" y="1055" as="targetPoint" />
          </mxGeometry>
        </mxCell>
        <mxCell id="kig5WdxVwH_8zVM2y1TM-2" value="Case 6" style="rhombus;whiteSpace=wrap;html=1;" parent="1" vertex="1">
          <mxGeometry x="1235" y="930" width="80" height="80" as="geometry" />
        </mxCell>
      </root>
    </mxGraphModel>
  </diagram>
</mxfile>
